<svg id="svg" version="1.1" xmlns="http://www.w3.org/2000/svg" xmlns:xlink="http://www.w3.org/1999/xlink" width="400" height="400" viewBox="0, 0, 400,400"><g id="svgg"><path id="path0" d="M44.833 0.340 C 31.101 1.836,19.441 12.792,17.017 26.478 C 16.368 30.140,16.543 311.096,17.196 314.264 C 19.577 325.821,28.039 334.906,39.833 338.568 L 42.833 339.500 111.850 339.589 L 180.866 339.677 181.800 341.589 C 196.424 371.523,228.145 394.162,262.000 398.827 C 335.652 408.976,397.081 342.309,380.833 269.863 C 373.204 235.846,348.224 206.642,316.090 194.169 L 313.681 193.234 313.590 110.367 L 313.500 27.500 312.623 24.330 C 309.344 12.479,300.905 4.141,288.931 0.920 L 286.167 0.176 166.667 0.131 C 100.942 0.106,46.117 0.200,44.833 0.340 M284.670 27.417 C 285.276 27.829,286.086 28.590,286.469 29.108 L 287.167 30.049 287.254 108.254 C 287.302 151.266,287.227 186.572,287.087 186.712 C 286.948 186.851,284.583 186.829,281.833 186.663 C 272.032 186.070,260.749 187.214,250.383 189.849 L 244.545 191.333 158.606 191.333 L 72.667 191.333 72.667 198.333 L 72.667 205.333 144.167 205.333 C 183.492 205.333,215.659 205.446,215.650 205.583 C 215.640 205.721,214.066 207.008,212.150 208.444 C 181.371 231.522,165.473 270.414,171.183 308.667 C 171.470 310.592,171.782 312.429,171.875 312.750 C 172.036 313.304,168.916 313.333,109.606 313.326 C 39.509 313.318,45.254 313.526,43.675 310.936 C 42.620 309.206,42.610 30.810,43.665 29.080 C 45.302 26.395,31.508 26.669,165.034 26.668 L 283.568 26.667 284.670 27.417 M72.667 77.333 L 72.667 84.333 165.000 84.333 L 257.333 84.333 257.333 77.333 L 257.333 70.333 165.000 70.333 L 72.667 70.333 72.667 77.333 M72.667 138.000 L 72.667 145.000 165.000 145.000 L 257.333 145.000 257.333 138.000 L 257.333 131.000 165.000 131.000 L 72.667 131.000 72.667 138.000 M287.169 200.167 C 360.826 208.679,396.065 295.364,349.124 352.570 C 302.487 409.404,210.863 392.324,187.815 322.500 C 166.488 257.892,219.702 192.371,287.169 200.167 M292.500 273.333 L 261.835 303.999 245.917 288.084 L 229.999 272.169 220.666 281.502 L 211.333 290.835 236.583 316.061 L 261.833 341.288 301.969 301.282 L 342.105 261.276 332.805 251.971 C 327.690 246.854,323.428 242.667,323.335 242.667 C 323.242 242.667,309.366 256.467,292.500 273.333 " stroke="none" fill="#042454" fill-rule="evenodd"></path><path id="path1" d="M44.083 0.230 C 44.404 0.314,44.929 0.314,45.250 0.230 C 45.571 0.146,45.308 0.077,44.667 0.077 C 44.025 0.077,43.762 0.146,44.083 0.230 M284.750 0.230 C 285.071 0.314,285.596 0.314,285.917 0.230 C 286.237 0.146,285.975 0.077,285.333 0.077 C 284.692 0.077,284.429 0.146,284.750 0.230 M37.729 1.561 C 36.939 1.841,36.351 2.128,36.423 2.200 C 36.495 2.272,37.366 2.043,38.360 1.690 C 39.354 1.337,39.942 1.050,39.667 1.051 C 39.392 1.052,38.520 1.281,37.729 1.561 M294.028 2.460 C 294.368 2.770,297.667 4.327,297.667 4.178 C 297.667 3.990,294.483 2.333,294.122 2.333 C 293.994 2.333,293.951 2.390,294.028 2.460 M33.583 3.356 C 32.896 3.719,32.333 4.090,32.333 4.181 C 32.333 4.330,34.966 3.099,35.306 2.792 C 35.689 2.445,34.688 2.773,33.583 3.356 M29.434 6.034 C 24.977 9.378,19.000 16.702,19.000 18.820 C 19.000 19.002,19.666 17.982,20.480 16.554 C 23.125 11.913,26.619 8.174,31.342 4.934 C 31.796 4.623,32.062 4.360,31.934 4.351 C 31.807 4.341,30.682 5.099,29.434 6.034 M298.655 4.891 C 303.287 8.323,304.284 9.242,307.279 12.833 C 308.168 13.899,308.243 13.944,307.656 13.059 C 305.876 10.379,301.675 6.470,298.833 4.852 C 297.843 4.288,297.842 4.289,298.655 4.891 M309.750 16.888 C 310.529 18.384,311.214 19.562,311.272 19.505 C 311.419 19.360,309.501 15.644,308.861 14.833 C 308.571 14.467,308.971 15.391,309.750 16.888 M105.750 26.917 C 138.338 26.964,191.663 26.964,224.250 26.917 C 256.838 26.870,230.175 26.831,165.000 26.831 C 99.825 26.831,73.163 26.870,105.750 26.917 M284.567 27.653 C 285.658 28.318,286.646 29.827,286.693 30.900 C 286.710 31.278,286.784 31.339,286.893 31.066 C 287.309 30.028,285.071 26.997,283.891 27.001 C 283.676 27.002,283.980 27.295,284.567 27.653 M313.411 28.333 C 313.411 28.975,313.479 29.238,313.563 28.917 C 313.647 28.596,313.647 28.071,313.563 27.750 C 313.479 27.429,313.411 27.692,313.411 28.333 M16.417 28.833 C 16.421 29.567,16.489 29.827,16.569 29.413 C 16.649 28.998,16.646 28.398,16.562 28.079 C 16.479 27.761,16.414 28.100,16.417 28.833 M44.024 28.545 C 43.644 29.028,43.338 29.591,43.343 29.795 C 43.349 29.999,43.520 29.867,43.723 29.500 C 43.927 29.133,44.321 28.571,44.598 28.250 C 44.876 27.929,45.016 27.667,44.909 27.667 C 44.802 27.667,44.404 28.062,44.024 28.545 M43.087 169.833 C 43.045 246.650,43.120 309.673,43.255 309.885 C 43.474 310.229,43.471 174.682,43.248 70.000 C 43.202 48.092,43.129 93.017,43.087 169.833 M72.333 77.333 L 72.333 84.667 165.083 84.584 L 257.833 84.501 165.250 84.417 L 72.667 84.332 72.667 77.333 L 72.667 70.335 165.250 70.250 L 257.833 70.165 165.083 70.083 L 72.333 70.000 72.333 77.333 M72.410 137.917 L 72.333 145.333 165.083 145.251 L 257.833 145.168 165.256 145.083 L 72.680 144.999 72.583 137.749 L 72.486 130.500 72.410 137.917 M269.256 186.575 C 269.855 186.649,270.755 186.648,271.256 186.572 C 271.757 186.495,271.267 186.435,270.167 186.437 C 269.067 186.438,268.657 186.501,269.256 186.575 M282.083 186.572 C 282.587 186.648,283.412 186.648,283.917 186.572 C 284.421 186.496,284.008 186.433,283.000 186.433 C 281.992 186.433,281.579 186.496,282.083 186.572 M265.417 186.896 C 265.737 186.980,266.262 186.980,266.583 186.896 C 266.904 186.813,266.642 186.744,266.000 186.744 C 265.358 186.744,265.096 186.813,265.417 186.896 M262.417 187.230 C 262.737 187.314,263.262 187.314,263.583 187.230 C 263.904 187.146,263.642 187.077,263.000 187.077 C 262.358 187.077,262.096 187.146,262.417 187.230 M72.333 198.333 L 72.333 205.667 143.750 205.684 C 211.029 205.701,215.119 205.734,214.344 206.267 C 213.892 206.579,213.142 207.179,212.678 207.602 C 212.213 208.024,212.621 207.823,213.583 207.154 C 214.545 206.485,215.416 205.802,215.519 205.636 C 215.631 205.455,186.924 205.333,144.186 205.333 L 72.667 205.333 72.667 198.334 L 72.667 191.335 158.917 191.250 L 245.167 191.165 158.750 191.083 L 72.333 191.000 72.333 198.333 M322.000 196.667 C 323.008 197.199,323.983 197.635,324.167 197.635 C 324.350 197.635,323.675 197.199,322.667 196.667 C 321.658 196.134,320.683 195.698,320.500 195.698 C 320.317 195.698,320.992 196.134,322.000 196.667 M324.667 197.824 C 324.667 197.915,325.567 198.445,326.667 199.000 C 327.767 199.555,328.667 199.935,328.667 199.843 C 328.667 199.751,327.767 199.222,326.667 198.667 C 325.567 198.111,324.667 197.732,324.667 197.824 M273.583 199.915 C 275.279 199.976,278.054 199.976,279.750 199.915 C 281.446 199.855,280.058 199.805,276.667 199.805 C 273.275 199.805,271.887 199.855,273.583 199.915 M267.254 200.236 C 267.669 200.315,268.269 200.312,268.587 200.229 C 268.906 200.146,268.567 200.080,267.833 200.084 C 267.100 200.088,266.839 200.156,267.254 200.236 M284.921 200.236 C 285.335 200.315,285.935 200.312,286.254 200.229 C 286.573 200.146,286.233 200.080,285.500 200.084 C 284.767 200.088,284.506 200.156,284.921 200.236 M329.000 200.150 C 329.000 200.241,329.450 200.549,330.000 200.833 C 330.550 201.118,331.000 201.275,331.000 201.184 C 331.000 201.092,330.550 200.784,330.000 200.500 C 329.450 200.216,329.000 200.058,329.000 200.150 M333.167 202.572 C 333.692 203.103,338.667 206.373,338.667 206.187 C 338.667 206.095,337.579 205.292,336.250 204.402 C 333.501 202.562,332.666 202.066,333.167 202.572 M250.500 203.333 C 250.080 203.514,250.018 203.620,250.333 203.620 C 250.608 203.620,251.133 203.491,251.500 203.333 C 251.920 203.153,251.982 203.047,251.667 203.047 C 251.392 203.047,250.867 203.176,250.500 203.333 M304.167 204.000 C 304.533 204.158,305.058 204.286,305.333 204.286 C 305.648 204.286,305.587 204.181,305.167 204.000 C 304.800 203.842,304.275 203.714,304.000 203.714 C 303.685 203.714,303.746 203.819,304.167 204.000 M307.333 204.944 C 307.608 205.114,308.208 205.353,308.667 205.476 C 309.246 205.631,309.347 205.604,309.000 205.390 C 308.725 205.220,308.125 204.980,307.667 204.858 C 307.088 204.703,306.986 204.729,307.333 204.944 M339.000 206.439 C 339.000 206.520,339.862 207.234,340.917 208.025 C 341.971 208.816,342.653 209.239,342.432 208.966 C 341.979 208.405,339.000 206.212,339.000 206.439 M238.333 207.833 C 237.875 208.095,237.650 208.310,237.833 208.310 C 238.017 208.310,238.542 208.095,239.000 207.833 C 239.458 207.571,239.683 207.357,239.500 207.357 C 239.317 207.357,238.792 207.571,238.333 207.833 M315.361 208.128 C 315.700 208.441,321.667 211.323,321.667 211.173 C 321.667 210.988,315.814 208.000,315.451 208.000 C 315.325 208.000,315.285 208.058,315.361 208.128 M208.833 210.556 C 202.874 215.518,196.379 222.176,192.629 227.167 C 190.624 229.835,191.138 229.281,194.769 224.858 C 197.599 221.412,204.676 214.359,208.417 211.257 C 211.310 208.858,211.882 208.331,211.583 208.334 C 211.537 208.335,210.300 209.335,208.833 210.556 M234.917 209.356 C 234.229 209.719,233.667 210.090,233.667 210.181 C 233.667 210.330,236.300 209.099,236.639 208.792 C 237.022 208.445,236.021 208.773,234.917 209.356 M347.321 213.133 C 351.252 216.730,356.169 221.863,359.090 225.417 C 361.891 228.824,363.056 229.930,360.672 226.917 C 356.618 221.795,350.102 215.113,345.654 211.517 C 345.189 211.141,345.939 211.868,347.321 213.133 M230.917 211.524 C 229.671 212.200,229.746 212.482,231.000 211.833 C 231.550 211.549,232.000 211.245,232.000 211.158 C 232.000 210.944,231.964 210.956,230.917 211.524 M322.000 211.483 C 322.000 211.575,322.450 211.882,323.000 212.167 C 323.550 212.451,324.000 212.609,324.000 212.517 C 324.000 212.425,323.550 212.118,323.000 211.833 C 322.450 211.549,322.000 211.391,322.000 211.483 M226.750 214.038 C 225.614 214.766,225.246 215.255,226.250 214.703 C 227.015 214.282,228.213 213.356,228.000 213.350 C 227.908 213.347,227.346 213.657,226.750 214.038 M326.000 213.761 C 326.000 213.850,327.006 214.577,328.236 215.378 C 329.466 216.178,331.829 217.850,333.486 219.093 C 335.144 220.336,335.916 220.826,335.202 220.182 C 333.262 218.434,326.000 213.367,326.000 213.761 M220.641 218.304 C 213.472 223.687,206.073 231.104,201.492 237.500 C 199.959 239.640,201.037 238.440,204.038 234.667 C 208.994 228.433,214.700 223.097,223.530 216.435 C 224.064 216.033,224.422 215.695,224.327 215.685 C 224.232 215.675,222.573 216.854,220.641 218.304 M341.868 226.500 C 347.422 232.032,350.263 235.384,353.733 240.500 C 355.673 243.360,356.769 244.791,356.160 243.667 C 353.394 238.563,344.927 228.559,338.871 223.237 C 337.575 222.098,338.924 223.567,341.868 226.500 M189.667 231.000 C 189.275 231.550,189.030 232.000,189.121 232.000 C 189.213 232.000,189.608 231.550,190.000 231.000 C 190.392 230.450,190.637 230.000,190.545 230.000 C 190.454 230.000,190.058 230.450,189.667 231.000 M363.667 231.333 C 364.058 231.883,364.454 232.333,364.545 232.333 C 364.637 232.333,364.392 231.883,364.000 231.333 C 363.608 230.783,363.213 230.333,363.121 230.333 C 363.030 230.333,363.275 230.783,363.667 231.333 M187.739 233.750 C 186.523 235.547,186.260 236.000,186.433 236.000 C 186.510 236.000,187.120 235.175,187.790 234.167 C 188.459 233.158,188.937 232.333,188.853 232.333 C 188.768 232.333,188.267 232.971,187.739 233.750 M366.957 236.167 C 367.137 236.533,367.529 237.133,367.827 237.500 L 368.370 238.167 368.043 237.500 C 367.863 237.133,367.471 236.533,367.173 236.167 L 366.630 235.500 366.957 236.167 M184.804 238.417 C 183.257 241.006,183.261 241.000,183.449 241.000 C 183.534 241.000,184.017 240.287,184.523 239.417 C 185.030 238.546,185.661 237.496,185.927 237.083 C 186.193 236.671,186.329 236.333,186.229 236.333 C 186.130 236.333,185.488 237.271,184.804 238.417 M199.070 240.917 C 197.502 243.251,197.254 243.667,197.431 243.667 C 197.507 243.667,198.267 242.617,199.120 241.333 C 199.974 240.050,200.601 239.000,200.515 239.000 C 200.429 239.000,199.779 239.862,199.070 240.917 M369.833 241.000 C 370.118 241.550,370.425 242.000,370.517 242.000 C 370.609 242.000,370.451 241.550,370.167 241.000 C 369.882 240.450,369.575 240.000,369.483 240.000 C 369.391 240.000,369.549 240.450,369.833 241.000 M180.816 245.702 C 179.795 247.738,179.012 249.456,179.077 249.521 C 179.141 249.586,180.050 247.920,181.095 245.819 C 182.141 243.719,182.923 242.000,182.834 242.000 C 182.745 242.000,181.837 243.666,180.816 245.702 M292.584 272.916 L 262.001 303.498 246.082 287.582 L 230.163 271.666 220.582 281.251 L 211.001 290.836 236.501 316.334 L 262.001 341.832 302.249 301.584 L 342.498 261.335 333.001 251.834 C 327.778 246.609,323.428 242.333,323.335 242.333 C 323.242 242.333,309.404 256.095,292.584 272.916 M332.834 252.001 L 342.164 261.335 302.082 301.417 L 262.001 341.499 236.668 316.168 L 211.335 290.836 220.749 281.418 L 230.163 271.999 246.082 287.915 L 262.001 303.832 292.584 273.249 C 309.404 256.429,323.242 242.667,323.335 242.667 C 323.428 242.667,327.703 246.867,332.834 252.001 M372.235 245.491 C 372.727 246.494,373.186 247.259,373.254 247.190 C 373.404 247.041,371.722 243.667,371.498 243.667 C 371.411 243.667,371.743 244.487,372.235 245.491 M357.833 247.000 C 358.118 247.550,358.425 248.000,358.517 248.000 C 358.609 248.000,358.451 247.550,358.167 247.000 C 357.882 246.450,357.575 246.000,357.483 246.000 C 357.391 246.000,357.549 246.450,357.833 247.000 M192.982 251.368 C 192.053 253.221,191.345 254.790,191.410 254.855 C 191.475 254.920,192.309 253.404,193.262 251.486 C 194.216 249.569,194.923 248.000,194.834 248.000 C 194.745 248.000,193.912 249.516,192.982 251.368 M360.237 251.488 C 360.914 252.857,361.522 253.922,361.589 253.856 C 361.737 253.707,359.388 249.000,359.165 249.000 C 359.077 249.000,359.560 250.120,360.237 251.488 M374.024 249.167 C 374.024 249.350,374.238 249.875,374.500 250.333 C 374.762 250.792,374.976 251.017,374.976 250.833 C 374.976 250.650,374.762 250.125,374.500 249.667 C 374.238 249.208,374.024 248.983,374.024 249.167 M178.387 250.848 C 177.829 252.073,177.936 252.335,178.539 251.221 C 178.821 250.700,178.990 250.212,178.914 250.136 C 178.837 250.060,178.601 250.380,178.387 250.848 M362.024 255.167 C 362.024 255.350,362.238 255.875,362.500 256.333 C 362.762 256.792,362.976 257.017,362.976 256.833 C 362.976 256.650,362.762 256.125,362.500 255.667 C 362.238 255.208,362.024 254.983,362.024 255.167 M176.037 256.704 C 175.832 257.293,175.722 257.833,175.793 257.904 C 175.865 257.976,176.091 257.552,176.296 256.963 C 176.502 256.374,176.611 255.834,176.540 255.762 C 176.469 255.691,176.242 256.115,176.037 256.704 M377.191 257.000 C 377.314 257.458,377.553 258.058,377.723 258.333 C 377.938 258.681,377.964 258.579,377.809 258.000 C 377.686 257.542,377.447 256.942,377.277 256.667 C 377.062 256.319,377.036 256.421,377.191 257.000 M366.380 267.000 C 366.380 267.275,366.509 267.800,366.667 268.167 C 366.847 268.587,366.953 268.648,366.953 268.333 C 366.953 268.058,366.824 267.533,366.667 267.167 C 366.486 266.746,366.380 266.685,366.380 267.000 M170.411 281.000 C 170.411 281.642,170.479 281.904,170.563 281.583 C 170.647 281.262,170.647 280.737,170.563 280.417 C 170.479 280.096,170.411 280.358,170.411 281.000 M183.744 282.667 C 183.744 283.308,183.813 283.571,183.896 283.250 C 183.980 282.929,183.980 282.404,183.896 282.083 C 183.813 281.762,183.744 282.025,183.744 282.667 M383.084 283.167 C 383.088 283.900,383.156 284.161,383.236 283.746 C 383.315 283.331,383.312 282.731,383.229 282.413 C 383.146 282.094,383.080 282.433,383.084 283.167 M170.095 284.500 C 170.098 285.417,170.163 285.752,170.239 285.245 C 170.316 284.739,170.314 283.989,170.235 283.579 C 170.156 283.169,170.093 283.583,170.095 284.500 M369.757 285.000 C 369.757 285.825,369.822 286.162,369.902 285.750 C 369.981 285.337,369.981 284.662,369.902 284.250 C 369.822 283.837,369.757 284.175,369.757 285.000 M183.429 286.500 C 183.431 287.417,183.496 287.752,183.573 287.245 C 183.649 286.739,183.647 285.989,183.568 285.579 C 183.489 285.169,183.426 285.583,183.429 286.500 M383.450 288.667 C 383.450 290.225,383.507 290.862,383.577 290.083 C 383.648 289.304,383.648 288.029,383.577 287.250 C 383.507 286.471,383.450 287.108,383.450 288.667 M169.802 293.167 C 169.802 296.100,169.853 297.255,169.915 295.734 C 169.977 294.213,169.976 291.813,169.914 290.401 C 169.852 288.989,169.801 290.233,169.802 293.167 M370.135 293.167 C 370.135 296.100,370.186 297.255,370.248 295.734 C 370.310 294.213,370.310 291.813,370.247 290.401 C 370.185 288.989,370.135 290.233,370.135 293.167 M183.095 293.167 C 183.098 294.083,183.163 294.419,183.239 293.912 C 183.316 293.405,183.314 292.655,183.235 292.245 C 183.156 291.835,183.093 292.250,183.095 293.167 M383.445 298.333 C 383.445 299.708,383.504 300.271,383.576 299.583 C 383.648 298.896,383.648 297.771,383.576 297.083 C 383.504 296.396,383.445 296.958,383.445 298.333 M183.429 299.833 C 183.431 300.750,183.496 301.085,183.573 300.579 C 183.649 300.072,183.647 299.322,183.568 298.912 C 183.489 298.502,183.426 298.917,183.429 299.833 M369.757 301.333 C 369.757 302.158,369.822 302.496,369.902 302.083 C 369.981 301.671,369.981 300.996,369.902 300.583 C 369.822 300.171,369.757 300.508,369.757 301.333 M170.091 301.667 C 170.091 302.492,170.156 302.829,170.235 302.417 C 170.315 302.004,170.315 301.329,170.235 300.917 C 170.156 300.504,170.091 300.842,170.091 301.667 M383.084 303.167 C 383.088 303.900,383.156 304.161,383.236 303.746 C 383.315 303.331,383.312 302.731,383.229 302.413 C 383.146 302.094,383.080 302.433,383.084 303.167 M183.744 303.667 C 183.744 304.308,183.813 304.571,183.896 304.250 C 183.980 303.929,183.980 303.404,183.896 303.083 C 183.813 302.762,183.744 303.025,183.744 303.667 M170.411 305.000 C 170.411 305.642,170.479 305.904,170.563 305.583 C 170.647 305.262,170.647 304.737,170.563 304.417 C 170.479 304.096,170.411 304.358,170.411 305.000 M382.744 306.333 C 382.744 306.975,382.813 307.237,382.896 306.917 C 382.980 306.596,382.980 306.071,382.896 305.750 C 382.813 305.429,382.744 305.692,382.744 306.333 M16.417 310.833 C 16.421 311.567,16.489 311.827,16.569 311.413 C 16.649 310.998,16.646 310.398,16.562 310.079 C 16.479 309.761,16.414 310.100,16.417 310.833 M44.896 311.917 C 45.498 312.512,46.255 312.990,46.578 312.979 C 46.995 312.964,46.924 312.861,46.333 312.626 C 45.875 312.444,45.118 311.966,44.651 311.564 C 44.184 311.162,44.295 311.321,44.896 311.917 M78.583 313.250 C 95.679 313.298,123.654 313.298,140.750 313.250 C 157.846 313.202,143.858 313.163,109.667 313.163 C 75.475 313.163,61.487 313.202,78.583 313.250 M366.524 318.524 C 366.401 319.012,366.365 319.476,366.444 319.555 C 366.522 319.633,366.687 319.298,366.810 318.810 C 366.932 318.321,366.968 317.857,366.890 317.778 C 366.811 317.700,366.646 318.035,366.524 318.524 M18.357 319.500 C 18.357 319.683,18.571 320.208,18.833 320.667 C 19.095 321.125,19.310 321.350,19.310 321.167 C 19.310 320.983,19.095 320.458,18.833 320.000 C 18.571 319.542,18.357 319.317,18.357 319.500 M365.238 322.738 C 364.935 323.687,364.742 324.519,364.809 324.587 C 364.877 324.655,365.188 323.940,365.500 323.000 C 365.812 322.060,366.005 321.228,365.929 321.151 C 365.853 321.075,365.542 321.789,365.238 322.738 M187.707 322.000 C 187.701 322.275,187.903 322.950,188.155 323.500 C 188.744 324.787,188.753 324.189,188.167 322.667 C 187.920 322.025,187.713 321.725,187.707 322.000 M20.209 323.333 C 21.531 326.129,25.427 330.720,28.500 333.102 C 29.233 333.671,28.450 332.820,26.759 331.211 C 25.067 329.603,22.967 327.195,22.092 325.862 C 21.216 324.528,20.310 323.151,20.079 322.802 C 19.847 322.452,19.905 322.692,20.209 323.333 M362.387 330.181 C 361.829 331.407,361.936 331.668,362.539 330.554 C 362.821 330.033,362.990 329.545,362.914 329.469 C 362.837 329.393,362.601 329.713,362.387 330.181 M191.333 331.450 C 191.333 331.813,194.988 339.000,195.172 339.000 C 195.321 339.000,191.776 331.700,191.462 331.361 C 191.391 331.285,191.333 331.325,191.333 331.450 M360.071 335.179 C 359.301 336.731,358.744 338.000,358.832 338.000 C 359.054 338.000,361.737 332.626,361.589 332.478 C 361.523 332.412,360.840 333.628,360.071 335.179 M374.721 335.514 C 374.162 336.740,374.269 337.002,374.873 335.887 C 375.155 335.367,375.323 334.879,375.247 334.802 C 375.171 334.726,374.934 335.047,374.721 335.514 M32.000 335.498 C 32.000 335.722,36.041 337.737,36.190 337.588 C 36.257 337.521,35.342 336.987,34.156 336.403 C 32.970 335.818,32.000 335.411,32.000 335.498 M372.238 340.847 C 371.192 342.948,370.410 344.667,370.499 344.667 C 370.720 344.667,374.404 337.293,374.257 337.146 C 374.192 337.081,373.284 338.747,372.238 340.847 M357.833 339.333 C 357.549 339.883,357.391 340.333,357.483 340.333 C 357.575 340.333,357.882 339.883,358.167 339.333 C 358.451 338.783,358.609 338.333,358.517 338.333 C 358.425 338.333,358.118 338.783,357.833 339.333 M195.770 340.167 C 196.052 340.717,196.532 341.467,196.837 341.833 C 197.141 342.200,197.054 341.900,196.642 341.167 C 195.734 339.549,195.053 338.769,195.770 340.167 M69.167 339.914 C 134.890 340.142,180.922 340.143,180.782 339.917 C 180.697 339.779,149.999 339.703,112.564 339.748 C 75.129 339.792,55.600 339.867,69.167 339.914 M354.263 345.083 C 349.633 352.016,342.832 359.589,336.645 364.701 C 332.924 367.775,332.255 368.541,335.417 366.106 C 338.613 363.645,347.589 354.544,350.316 351.000 C 353.270 347.161,356.568 342.333,356.236 342.333 C 356.161 342.333,355.274 343.571,354.263 345.083 M197.538 343.083 C 198.238 344.276,200.379 347.333,200.515 347.333 C 200.601 347.333,199.974 346.283,199.120 345.000 C 198.267 343.717,197.507 342.667,197.431 342.667 C 197.356 342.667,197.404 342.854,197.538 343.083 M182.833 344.333 C 183.118 344.883,183.425 345.333,183.517 345.333 C 183.609 345.333,183.451 344.883,183.167 344.333 C 182.882 343.783,182.575 343.333,182.483 343.333 C 182.391 343.333,182.549 343.783,182.833 344.333 M369.500 346.000 C 369.216 346.550,369.058 347.000,369.150 347.000 C 369.241 347.000,369.549 346.550,369.833 346.000 C 370.118 345.450,370.275 345.000,370.184 345.000 C 370.092 345.000,369.784 345.450,369.500 346.000 M201.360 348.667 C 202.608 350.482,206.863 355.521,209.440 358.234 C 212.402 361.352,221.000 368.790,221.000 368.235 C 221.000 368.150,219.612 366.976,217.917 365.626 C 213.777 362.330,207.435 355.953,204.032 351.667 C 201.005 347.852,200.111 346.849,201.360 348.667 M367.460 349.417 C 366.313 351.363,366.238 351.530,366.823 350.833 C 367.500 350.027,368.083 349.000,367.865 349.000 C 367.777 349.000,367.595 349.188,367.460 349.417 M186.205 350.083 C 186.905 351.276,189.046 354.333,189.182 354.333 C 189.268 354.333,188.640 353.283,187.787 352.000 C 186.934 350.717,186.174 349.667,186.098 349.667 C 186.023 349.667,186.071 349.854,186.205 350.083 M364.333 354.167 C 363.766 354.992,363.376 355.667,363.468 355.667 C 363.560 355.667,364.099 354.992,364.667 354.167 C 365.234 353.342,365.624 352.667,365.532 352.667 C 365.440 352.667,364.901 353.342,364.333 354.167 M189.547 355.000 C 190.729 356.716,194.059 360.997,194.355 361.180 C 194.750 361.424,190.516 355.786,189.714 355.000 C 189.260 354.556,189.241 354.556,189.547 355.000 M362.146 357.224 C 361.632 357.897,361.383 358.342,361.591 358.214 C 362.017 357.950,363.460 356.000,363.229 356.000 C 363.147 356.000,362.659 356.551,362.146 357.224 M358.962 361.248 C 353.895 367.393,345.701 375.091,339.583 379.454 C 338.346 380.336,337.333 381.128,337.333 381.212 C 337.333 382.709,352.548 369.151,357.770 363.000 C 361.550 358.549,361.455 358.667,361.263 358.667 C 361.168 358.667,360.132 359.828,358.962 361.248 M196.589 363.833 C 198.620 366.168,204.799 372.302,207.004 374.173 C 207.647 374.720,206.641 373.698,204.768 371.903 C 202.894 370.107,199.831 367.032,197.960 365.069 C 196.089 363.106,195.472 362.550,196.589 363.833 M328.300 370.787 C 325.806 372.462,323.481 374.029,323.133 374.268 C 322.785 374.507,323.250 374.296,324.167 373.799 C 326.131 372.735,332.585 368.402,332.854 367.967 C 333.117 367.541,333.277 367.442,328.300 370.787 M221.333 368.455 C 221.333 368.546,221.783 368.942,222.333 369.333 C 222.883 369.725,223.333 369.970,223.333 369.879 C 223.333 369.787,222.883 369.392,222.333 369.000 C 221.783 368.608,221.333 368.363,221.333 368.455 M227.167 372.497 C 227.911 373.116,230.023 374.257,229.500 373.758 C 229.317 373.583,228.567 373.103,227.833 372.691 C 227.100 372.280,226.800 372.192,227.167 372.497 M230.000 374.150 C 230.000 374.241,230.450 374.549,231.000 374.833 C 231.550 375.118,232.000 375.275,232.000 375.184 C 232.000 375.092,231.550 374.784,231.000 374.500 C 230.450 374.216,230.000 374.058,230.000 374.150 M318.333 376.667 C 316.225 377.748,314.615 378.640,314.756 378.649 C 315.110 378.673,322.333 375.033,322.333 374.831 C 322.333 374.603,322.569 374.495,318.333 376.667 M208.770 375.564 C 209.050 376.018,211.667 378.129,211.667 377.901 C 211.667 377.817,210.961 377.169,210.099 376.462 C 209.237 375.756,208.639 375.352,208.770 375.564 M233.000 375.831 C 233.000 376.056,236.374 377.737,236.524 377.587 C 236.592 377.519,235.827 377.061,234.824 376.568 C 233.821 376.076,233.000 375.745,233.000 375.831 M212.172 378.342 C 212.389 378.693,217.935 382.580,219.500 383.477 C 220.488 384.044,220.490 384.044,219.679 383.442 C 217.141 381.562,212.005 378.072,212.172 378.342 M239.000 378.833 C 239.458 379.095,239.983 379.310,240.167 379.310 C 240.350 379.310,240.125 379.095,239.667 378.833 C 239.208 378.571,238.683 378.357,238.500 378.357 C 238.317 378.357,238.542 378.571,239.000 378.833 M313.000 379.167 C 312.542 379.429,312.317 379.643,312.500 379.643 C 312.683 379.643,313.208 379.429,313.667 379.167 C 314.125 378.905,314.350 378.690,314.167 378.690 C 313.983 378.690,313.458 378.905,313.000 379.167 M245.870 381.485 C 246.440 381.749,247.340 382.049,247.870 382.154 C 248.694 382.316,248.665 382.277,247.667 381.886 C 245.866 381.180,244.594 380.896,245.870 381.485 M331.742 384.631 C 329.107 386.236,328.604 386.746,330.917 385.468 C 332.609 384.532,334.342 383.344,334.000 383.353 C 333.908 383.355,332.892 383.930,331.742 384.631 M221.167 384.497 C 221.911 385.116,224.023 386.257,223.500 385.758 C 223.317 385.583,222.567 385.103,221.833 384.691 C 221.100 384.280,220.800 384.192,221.167 384.497 M288.083 385.896 C 288.404 385.980,288.929 385.980,289.250 385.896 C 289.571 385.813,289.308 385.744,288.667 385.744 C 288.025 385.744,287.762 385.813,288.083 385.896 M224.000 386.153 C 224.000 386.245,224.600 386.626,225.333 387.000 C 226.067 387.374,226.667 387.605,226.667 387.514 C 226.667 387.422,226.067 387.041,225.333 386.667 C 224.600 386.293,224.000 386.061,224.000 386.153 M267.254 386.236 C 267.669 386.315,268.269 386.312,268.587 386.229 C 268.906 386.146,268.567 386.080,267.833 386.084 C 267.100 386.088,266.839 386.156,267.254 386.236 M285.254 386.236 C 285.669 386.315,286.269 386.312,286.587 386.229 C 286.906 386.146,286.567 386.080,285.833 386.084 C 285.100 386.088,284.839 386.156,285.254 386.236 M273.417 386.582 C 275.204 386.642,278.129 386.642,279.917 386.582 C 281.704 386.522,280.242 386.473,276.667 386.473 C 273.092 386.473,271.629 386.522,273.417 386.582 M324.333 388.667 C 321.858 389.931,319.948 390.973,320.088 390.983 C 320.442 391.007,329.000 386.700,329.000 386.498 C 329.000 386.269,329.298 386.131,324.333 388.667 M233.000 390.833 C 233.458 391.095,233.983 391.310,234.167 391.310 C 234.350 391.310,234.125 391.095,233.667 390.833 C 233.208 390.571,232.683 390.357,232.500 390.357 C 232.317 390.357,232.542 390.571,233.000 390.833 M318.333 391.500 C 317.875 391.762,317.650 391.976,317.833 391.976 C 318.017 391.976,318.542 391.762,319.000 391.500 C 319.458 391.238,319.683 391.024,319.500 391.024 C 319.317 391.024,318.792 391.238,318.333 391.500 M309.833 394.695 C 308.917 395.049,308.600 395.254,309.130 395.151 C 310.178 394.947,312.375 394.055,311.833 394.053 C 311.650 394.052,310.750 394.341,309.833 394.695 M244.833 395.333 C 245.200 395.491,245.725 395.620,246.000 395.620 C 246.315 395.620,246.254 395.514,245.833 395.333 C 245.467 395.176,244.942 395.047,244.667 395.047 C 244.352 395.047,244.413 395.153,244.833 395.333 M305.500 396.000 C 305.080 396.181,305.018 396.286,305.333 396.286 C 305.608 396.286,306.133 396.158,306.500 396.000 C 306.920 395.819,306.982 395.714,306.667 395.714 C 306.392 395.714,305.867 395.842,305.500 396.000 M262.417 399.230 C 262.737 399.314,263.262 399.314,263.583 399.230 C 263.904 399.146,263.642 399.077,263.000 399.077 C 262.358 399.077,262.096 399.146,262.417 399.230 M265.254 399.569 C 265.669 399.649,266.269 399.646,266.587 399.562 C 266.906 399.479,266.567 399.414,265.833 399.417 C 265.100 399.421,264.839 399.489,265.254 399.569 M286.921 399.569 C 287.335 399.649,287.935 399.646,288.254 399.562 C 288.573 399.479,288.233 399.414,287.500 399.417 C 286.767 399.421,286.506 399.489,286.921 399.569 M269.256 399.908 C 269.855 399.982,270.755 399.981,271.256 399.905 C 271.757 399.829,271.267 399.768,270.167 399.770 C 269.067 399.772,268.657 399.834,269.256 399.908 M282.589 399.908 C 283.188 399.982,284.088 399.981,284.589 399.905 C 285.090 399.829,284.600 399.768,283.500 399.770 C 282.400 399.772,281.990 399.834,282.589 399.908 " stroke="none" fill="#697d96" fill-rule="evenodd"></path><path id="path2" d="M118.750 130.917 C 144.187 130.964,185.812 130.964,211.250 130.917 C 236.687 130.870,215.875 130.831,165.000 130.831 C 114.125 130.831,93.312 130.870,118.750 130.917 M383.411 295.000 C 383.411 295.642,383.479 295.904,383.563 295.583 C 383.647 295.262,383.647 294.737,383.563 294.417 C 383.479 294.096,383.411 294.358,383.411 295.000 " stroke="none" fill="#4c6484" fill-rule="evenodd"></path><path id="path3" d="M352.167 218.000 C 353.070 218.917,353.883 219.667,353.975 219.667 C 354.067 219.667,353.403 218.917,352.500 218.000 C 351.597 217.083,350.783 216.333,350.692 216.333 C 350.600 216.333,351.264 217.083,352.167 218.000 " stroke="none" fill="#3e5c7c" fill-rule="evenodd"></path><path id="path4" d="M16.498 170.000 C 16.498 246.175,16.537 277.337,16.583 239.250 C 16.630 201.162,16.630 138.837,16.583 100.750 C 16.537 62.662,16.498 93.825,16.498 170.000 M287.164 109.167 C 287.164 151.883,287.203 169.309,287.250 147.890 C 287.297 126.471,287.297 91.521,287.250 70.223 C 287.203 48.925,287.164 66.450,287.164 109.167 M257.475 77.333 C 257.475 81.275,257.523 82.887,257.582 80.917 C 257.641 78.946,257.641 75.721,257.582 73.750 C 257.523 71.779,257.475 73.392,257.475 77.333 M257.475 138.000 C 257.475 141.942,257.523 143.554,257.582 141.583 C 257.641 139.612,257.641 136.387,257.582 134.417 C 257.523 132.446,257.475 134.058,257.475 138.000 M342.653 226.750 C 344.034 228.222,344.333 228.486,344.333 228.236 C 344.333 228.183,343.621 227.470,342.750 226.653 L 341.167 225.167 342.653 226.750 M245.833 288.000 C 254.632 296.800,261.906 304.000,261.997 304.000 C 262.089 304.000,254.965 296.800,246.167 288.000 C 237.368 279.200,230.094 272.000,230.003 272.000 C 229.911 272.000,237.035 279.200,245.833 288.000 M294.333 308.917 L 261.833 341.500 294.417 309.001 C 312.337 291.126,327.000 276.463,327.000 276.417 C 327.000 276.184,324.546 278.625,294.333 308.917 M342.821 359.417 L 341.167 361.167 342.917 359.513 C 344.543 357.975,344.820 357.667,344.571 357.667 C 344.518 357.667,343.731 358.454,342.821 359.417 M273.254 399.902 C 273.669 399.982,274.269 399.979,274.587 399.896 C 274.906 399.812,274.567 399.747,273.833 399.751 C 273.100 399.754,272.839 399.823,273.254 399.902 " stroke="none" fill="#2f4f74" fill-rule="evenodd"></path></g></svg>